<svg xmlns="http://www.w3.org/2000/svg" width="131" height="101" viewBox="0 0 131 101">
    <defs>
        <style>
            .cls-1{fill:transparent;stroke:#fff;stroke-width:12px}.cls-2{fill:#fff}.cls-3{stroke:none}.cls-4{fill:none}
        </style>
    </defs>
    <g id="Group_2501" data-name="Group 2501" transform="translate(-865 -481)">
        <g id="Rectangle_62" class="cls-1" data-name="Rectangle 62" transform="translate(865 481)">
            <rect width="131" height="101" class="cls-3" rx="10"/>
            <rect width="119" height="89" x="6" y="6" class="cls-4" rx="4"/>
        </g>
        <path id="Path_1017" d="M143.374 160.672a13.437 13.437 0 1 0-13.429-13.432 13.449 13.449 0 0 0 13.429 13.432zm0 0" class="cls-2" data-name="Path 1017" transform="translate(754.02 366.018)"/>
        <path id="Path_1018" d="M124 123.4v91.039h119.335V123.4zm4.779 3.506h109.776V175.3l-27.023-18.174a3.014 3.014 0 0 0-1.712-.462 2.86 2.86 0 0 0-1.656.573L188.2 173.27l9.087 6.659a1.447 1.447 0 0 1 0 2.479 3.04 3.04 0 0 1-3.377 0l-9.126-6.394-11.326-8.314a3.062 3.062 0 0 0-3.264-.077l-39.935 25.8h-1.48zm109.776 84.027H128.779v-14h109.776zm0 0" class="cls-2" data-name="Path 1018" transform="translate(747.088 365.792)"/>
        <path id="Rectangle_63" d="M0 0h111v14H0z" class="cls-2" data-name="Rectangle 63" transform="translate(875 560)"/>
    </g>
</svg>
