<svg xmlns="http://www.w3.org/2000/svg" width="116.692" height="101" viewBox="0 0 116.692 101">
    <defs>
        <style>
            .cls-1{fill:#fff}
        </style>
    </defs>
    <g id="Group_2500" data-name="Group 2500" transform="translate(-695.309 -482)">
        <g id="Group_2499" data-name="Group 2499" transform="translate(28.311 34.005)">
            <path id="Path_1019" d="M143.9 112.927a32.428 32.428 0 0 0 4.191-14.057 19.984 19.984 0 0 0-2.026-9.752c-2.379-4.98-6.466-7.777-10.414-10.48-2.947-2.017-5.731-3.921-7.7-6.641l-.353-.485c-1.164-1.6-2.478-3.406-2.686-4.926a2.89 2.89 0 0 0-5.76.4v52.694a16.48 16.48 0 0 0-8.683-2.425c-7.977 0-14.472 5.3-14.472 11.828s6.5 11.828 14.472 11.828 14.472-5.3 14.472-11.828V94.617a21.132 21.132 0 0 1 13.419 16.116 16.683 16.683 0 0 1-1.117 1.615 2.99 2.99 0 0 0 .261 4.169 2.842 2.842 0 0 0 4.081-.266 21.989 21.989 0 0 0 2.125-3.052 1.878 1.878 0 0 0 .19-.272z" class="cls-1" data-name="Path 1019" transform="translate(635.564 407.736)"/>
            <path id="Path_1020" d="M155.4 64a3.046 3.046 0 0 0-3.045 3.045V121.3a17.616 17.616 0 0 0-9.135-2.5c-8.392 0-15.224 5.462-15.224 12.179s6.833 12.179 15.224 12.179 15.224-5.462 15.224-12.179V67.045A3.046 3.046 0 0 0 155.4 64z" class="cls-1" data-name="Path 1020" transform="translate(538.998 405.829)"/>
            <path id="Path_1021" d="M155.4 64a3.046 3.046 0 0 0-3.045 3.045V121.3a17.616 17.616 0 0 0-9.135-2.5c-8.392 0-15.224 5.462-15.224 12.179s6.833 12.179 15.224 12.179 15.224-5.462 15.224-12.179V67.045A3.046 3.046 0 0 0 155.4 64z" class="cls-1" data-name="Path 1021" transform="translate(576.294 383.995)"/>
        </g>
    </g>
</svg>
