<svg viewBox="0 -8 511.97874 511" xmlns="http://www.w3.org/2000/svg" fill="#337ab7"><path d="m255.996094 495.050781c-56.464844 0-102.398438-45.933593-102.398438-102.398437s45.933594-102.402344 102.398438-102.402344c56.46875 0 102.402344 45.9375 102.402344 102.402344s-45.933594 102.398437-102.402344 102.398437zm0-187.734375c-47.050782 0-85.332032 38.28125-85.332032 85.335938 0 47.050781 38.28125 85.332031 85.332032 85.332031 47.054687 0 85.335937-38.28125 85.335937-85.332031 0-47.054688-38.28125-85.335938-85.335937-85.335938zm0 0"/><path d="m255.996094 452.386719c-4.707032 0-8.53125-3.824219-8.53125-8.535157v-102.398437c0-4.710937 3.824218-8.535156 8.53125-8.535156 4.710937 0 8.535156 3.824219 8.535156 8.535156v102.398437c0 4.710938-3.824219 8.535157-8.535156 8.535157zm0 0"/><path d="m307.199219 401.183594h-102.402344c-4.710937 0-8.53125-3.820313-8.53125-8.53125 0-4.710938 3.820313-8.535156 8.53125-8.535156h102.402344c4.710937 0 8.53125 3.824218 8.53125 8.535156 0 4.710937-3.820313 8.53125-8.53125 8.53125zm0 0"/><path d="m408.941406 477.984375c-1.332031 0-2.671875-.316406-3.910156-.945313l-68.792969-35.40625c-4.140625-2.132812-5.8125-7.183593-3.746093-11.367187 5.871093-11.886719 8.839843-24.550781 8.839843-37.613281 0-47.054688-38.28125-85.335938-85.335937-85.335938-47.050782 0-85.332032 38.28125-85.332032 85.335938 0 13.070312 2.96875 25.726562 8.839844 37.621094 2.058594 4.183593.394532 9.234374-3.746094 11.367187l-68.792968 35.40625c-2.878906 1.484375-6.359375 1.210937-8.960938-.71875-2.613281-1.917969-3.910156-5.152344-3.347656-8.34375l28.425781-162.226563-120.4375-114.929687c-2.363281-2.261719-3.234375-5.664063-2.238281-8.777344 1-3.117187 3.6875-5.386719 6.921875-5.847656l166.578125-23.6875 74.460938-147.710937c2.902343-5.753907 12.339843-5.753907 15.242187 0l74.460937 147.710937 166.582032 23.6875c3.234375.460937 5.921875 2.730469 6.917968 5.847656 1 3.113281.128907 6.515625-2.234374 8.777344l-120.414063 114.917969 28.425781 162.230468c.554688 3.191407-.734375 6.414063-3.347656 8.34375-1.492188 1.101563-3.277344 1.664063-5.058594 1.664063zm-57.730468-47.835937 46.355468 23.847656-26.242187-149.800782c-.492188-2.808593.453125-5.675781 2.519531-7.644531l111.007812-105.925781-153.582031-21.84375c-2.765625-.394531-5.160156-2.117188-6.417969-4.609375l-68.855468-136.566406-68.84375 136.574219c-1.253906 2.492187-3.652344 4.214843-6.417969 4.609374l-153.582031 21.84375 111 105.917969c2.066406 1.96875 3.003906 4.835938 2.515625 7.644531l-26.238281 149.800782 46.351562-23.847656c-4.769531-12-7.183594-24.578126-7.183594-37.496094 0-56.464844 45.933594-102.402344 102.398438-102.402344 56.46875 0 102.402344 45.9375 102.402344 102.402344 0 12.917968-2.414063 25.496094-7.1875 37.496094zm0 0"/></svg>